<svg xmlns="http://www.w3.org/2000/svg" width="512" height="512" viewBox="0 0 512 512">
<g>
<path d="M 0.00 412.70 L 0.00 0.00 L 512.00 0.00 L 512.00 512.00 L 49.72 512.00 C96.08,512.00 99.28,511.89 96.97,510.37 C93.39,508.00 6.34,421.24 2.90,416.60 ZM 322.00 511.06 C320.62,511.48 362.81,511.87 415.75,511.91 L 512.00 512.00 L 511.95 173.50 L 509.70 180.00 C508.46,183.57 498.86,201.35 488.35,219.50 C477.85,237.65 459.90,268.70 448.47,288.50 C437.04,308.30 424.56,329.90 420.74,336.50 C416.92,343.10 406.81,360.65 398.28,375.50 C389.74,390.35 381.72,403.89 380.45,405.59 C377.90,409.00 315.05,455.78 310.93,457.33 C304.95,459.59 298.00,454.73 298.00,448.30 C298.00,446.21 299.98,426.91 302.39,405.41 C305.56,377.14 307.26,365.40 308.51,362.97 C310.22,359.68 354.46,282.77 361.99,270.00 C364.10,266.42 378.41,241.68 393.80,215.00 C409.18,188.32 424.85,161.15 428.63,154.61 C437.68,138.94 441.99,134.24 451.72,129.41 C459.25,125.68 459.83,125.55 470.00,125.55 C478.57,125.54 481.53,125.95 486.09,127.78 C497.16,132.22 508.16,145.06 510.92,156.75 C511.45,159.03 511.84,129.06 511.90,80.25 L 512.00 0.00 L 386.75 0.11 C317.86,0.17 263.38,0.59 265.67,1.04 C271.72,2.24 275.74,4.60 281.11,10.11 C287.16,16.32 290.00,23.61 290.00,32.92 L 290.00 39.77 L 306.25 40.19 C321.36,40.59 322.85,40.80 327.50,43.22 C333.95,46.57 338.25,51.13 341.43,58.00 L 343.98 63.50 L 344.00 218.15 L 341.08 221.08 C336.13,226.03 327.33,224.27 325.11,217.88 C324.37,215.77 324.00,201.84 324.00,176.35 L 324.00 138.00 L 20.00 138.00 L 20.00 399.88 L 89.50 400.50 L 95.24 403.32 C101.94,406.61 107.28,412.60 110.07,419.96 C111.84,424.59 112.00,427.88 112.00,458.51 L 112.00 492.00 L 214.05 492.00 C218.75,492.00 223.25,492.00 227.55,492.00 C311.48,492.01 319.85,492.01 321.97,488.37 C322.32,487.78 322.50,487.09 322.81,486.30 C323.41,484.76 324.03,478.02 324.20,471.33 C324.48,460.06 324.68,458.97 326.91,456.60 C331.33,451.90 338.07,452.24 342.23,457.37 C343.69,459.17 343.96,461.76 343.97,474.00 C343.98,487.45 343.80,488.90 341.43,494.00 C337.46,502.56 330.85,508.36 322.00,511.06 ZM 20.00 67.03 L 20.00 118.00 L 324.00 118.00 L 324.00 67.03 L 318.17 60.50 L 290.27 59.85 L 289.81 67.70 C288.79,85.31 277.24,97.98 260.66,99.70 C255.79,100.20 255.02,99.99 252.12,97.37 C244.96,90.92 247.97,82.38 258.26,79.97 C261.14,79.30 264.35,78.02 265.39,77.12 C268.15,74.75 270.00,69.70 270.00,64.53 L 270.00 60.00 L 204.26 60.00 L 203.81 67.77 C202.76,85.88 190.02,99.33 173.78,99.45 C168.83,99.49 167.67,99.12 165.30,96.75 C163.22,94.68 162.55,93.03 162.55,90.06 C162.55,84.76 165.71,81.50 172.35,79.95 C175.18,79.29 178.35,78.02 179.39,77.12 C182.15,74.75 184.00,69.70 184.00,64.53 L 184.00 60.00 L 118.26 60.00 L 117.81 67.77 C117.27,77.05 114.15,84.60 108.46,90.39 C100.18,98.81 85.17,102.32 79.63,97.12 C72.41,90.34 76.75,81.31 88.09,79.53 C94.23,78.57 98.00,72.81 98.00,64.40 L 98.00 59.93 L 25.83 60.50 L 22.92 63.77 ZM 357.00 380.31 C362.23,383.36 367.09,385.78 367.82,385.68 C368.55,385.58 375.24,374.92 382.69,362.00 C415.59,304.93 426.90,285.34 446.16,252.00 C457.44,232.48 467.19,215.52 467.83,214.33 C468.90,212.31 468.43,211.83 460.74,207.24 C443.71,197.07 432.05,190.85 431.10,191.44 C430.56,191.77 428.66,194.62 426.88,197.77 C423.45,203.82 391.35,259.48 362.74,309.00 C353.36,325.23 342.37,344.25 338.31,351.28 C334.25,358.32 331.15,364.43 331.42,364.86 C331.69,365.30 335.42,367.71 339.70,370.21 C343.99,372.71 351.77,377.26 357.00,380.31 ZM 277.08 247.08 L 274.15 250.00 L 70.80 250.00 L 67.40 246.60 C63.02,242.22 62.87,238.30 66.92,233.77 L 69.84 230.50 L 275.17 230.50 L 277.59 233.31 C281.13,237.42 280.91,243.24 277.08,247.08 ZM 277.08 303.08 L 274.15 306.00 L 70.80 306.00 L 67.40 302.60 C63.02,298.22 62.87,294.30 66.92,289.77 L 69.84 286.50 L 275.17 286.50 L 277.59 289.31 C281.13,293.42 280.91,299.24 277.08,303.08 ZM 277.08 359.08 L 274.15 362.00 L 70.80 362.00 L 67.40 358.60 C63.02,354.22 62.87,350.30 66.92,345.77 L 69.84 342.50 L 275.17 342.50 L 277.59 345.31 C281.13,349.42 280.91,355.24 277.08,359.08 ZM 277.08 191.08 L 274.15 194.00 L 194.83 193.96 C130.90,193.94 115.04,193.67 113.11,192.60 C105.73,188.51 106.77,177.31 114.76,174.99 C117.35,174.23 142.52,173.99 196.84,174.20 L 275.17 174.50 L 277.59 177.31 C281.13,181.42 280.91,187.24 277.08,191.08 ZM 0.11 33.75 C0.18,56.01 0.52,65.98 1.09,63.05 C3.04,53.09 13.51,42.97 23.89,41.02 C26.85,40.46 34.77,40.00 41.49,40.00 L 53.71 40.00 L 54.26 32.05 C55.35,16.12 64.60,4.42 78.73,1.09 C81.14,0.52 67.64,0.16 41.25,0.10 L 0.00 0.00 ZM 459.28 183.32 C469.30,189.14 477.99,193.92 478.59,193.95 C479.87,194.01 489.66,176.71 491.21,171.67 C492.57,167.24 491.53,160.52 488.72,155.63 C483.12,145.85 470.45,142.20 460.18,147.41 C454.89,150.09 452.21,153.47 443.74,168.12 L 441.06 172.75 ZM 88.92 474.85 C91.69,480.02 92.09,476.75 91.80,451.61 L 91.50 426.22 L 88.64 423.36 L 85.78 420.50 L 60.39 420.20 C35.18,419.91 31.93,420.31 37.25,423.11 C40.08,424.60 87.36,471.94 88.92,474.85 ZM 117.84 31.75 L 118.21 40.00 L 139.70 40.00 L 140.32 31.96 C141.08,22.21 143.62,16.02 149.30,10.17 C153.91,5.41 158.94,2.45 164.73,1.09 C167.13,0.52 153.90,0.21 128.50,0.22 C105.00,0.23 90.47,0.57 93.28,1.04 C102.44,2.58 110.35,8.95 115.08,18.60 C116.87,22.25 117.57,25.60 117.84,31.75 ZM 204.00 33.01 L 204.00 40.00 L 225.70 40.00 L 226.33 31.89 C227.57,15.83 236.62,4.41 250.73,1.09 C253.13,0.52 240.13,0.20 215.00,0.21 C190.35,0.22 177.14,0.54 179.85,1.08 C193.74,3.81 204.00,17.37 204.00,33.01 ZM 320.35 423.38 C319.83,425.74 319.98,426.10 321.20,425.38 C325.07,423.07 352.93,402.42 352.96,401.82 C353.01,400.97 328.66,387.00 327.13,387.00 C326.51,387.00 326.00,386.55 326.00,386.00 C326.00,385.45 325.49,385.00 324.87,385.00 C324.12,385.00 323.91,386.67 324.23,390.00 C324.49,392.75 324.38,395.00 323.99,395.00 C323.35,395.00 322.53,401.44 321.38,415.50 C321.16,418.25 320.69,421.80 320.35,423.38 ZM 74.26 34.04 L 73.72 40.00 L 98.00 40.00 L 98.00 34.90 C98.00,24.28 91.85,18.62 82.94,21.02 C77.68,22.43 74.94,26.54 74.26,34.04 ZM 160.01 36.25 L 160.00 40.00 L 184.00 40.00 L 184.00 34.90 C184.00,25.50 179.73,20.44 171.97,20.64 C164.44,20.84 160.02,26.60 160.01,36.25 ZM 246.25 34.13 L 245.72 40.00 L 270.00 40.00 L 270.00 34.90 C270.00,25.74 265.87,20.60 258.50,20.60 C251.13,20.60 247.08,25.08 246.25,34.13 ZM 78.85 192.57 C74.36,194.90 71.14,194.34 67.40,190.60 C63.20,186.40 62.92,182.43 66.53,178.15 C74.24,168.98 87.78,177.61 82.81,188.53 C82.15,189.97 80.37,191.79 78.85,192.57 ZM 341.08 263.08 C337.09,267.06 332.23,267.07 327.79,263.10 C325.16,260.75 324.55,259.45 324.55,256.23 C324.55,251.59 326.21,249.23 330.84,247.30 C340.65,243.19 348.64,255.51 341.08,263.08 Z" fill="rgb(1,1,1)"/>
<path d="M 20.00 67.03 L 25.83 60.50 L 98.00 59.93 L 98.00 64.40 C98.00,72.81 94.23,78.57 88.09,79.53 C76.75,81.31 72.41,90.34 79.63,97.12 C85.17,102.32 100.18,98.81 108.46,90.39 C114.15,84.60 117.27,77.05 117.81,67.77 L 118.26 60.00 L 184.00 60.00 L 184.00 64.53 C184.00,69.70 182.15,74.75 179.39,77.12 C178.35,78.02 175.18,79.29 172.35,79.95 C165.71,81.50 162.55,84.76 162.55,90.06 C162.55,93.03 163.22,94.68 165.30,96.75 C167.67,99.12 168.83,99.49 173.78,99.45 C190.02,99.33 202.76,85.88 203.81,67.77 L 204.26 60.00 L 270.00 60.00 L 270.00 64.53 C270.00,69.70 268.15,74.75 265.39,77.12 C264.35,78.02 261.14,79.30 258.26,79.97 C247.97,82.38 244.96,90.92 252.12,97.37 C255.02,99.99 255.79,100.20 260.66,99.70 C277.24,97.98 288.79,85.31 289.81,67.70 L 290.27 59.85 L 318.17 60.50 L 324.00 67.03 L 324.00 118.00 L 20.00 118.00 ZM 459.28 183.32 L 441.06 172.75 L 443.74 168.12 C452.21,153.47 454.89,150.09 460.18,147.41 C470.45,142.20 483.12,145.85 488.72,155.63 C491.53,160.52 492.57,167.24 491.21,171.67 C489.66,176.71 479.87,194.01 478.59,193.95 C477.99,193.92 469.30,189.14 459.28,183.32 ZM 88.92 474.85 C87.36,471.94 40.08,424.60 37.25,423.11 C31.93,420.31 35.18,419.91 60.39,420.20 L 85.78 420.50 L 88.64 423.36 L 91.50 426.22 L 91.80 451.61 C92.09,476.75 91.69,480.02 88.92,474.85 ZM 86.88 464.75 C86.96,466.29 87.63,467.00 89.00,467.00 C90.56,467.00 91.00,466.33 91.00,464.00 C91.00,461.95 90.51,461.00 89.44,461.00 C88.08,461.00 87.90,458.97 88.09,445.40 L 88.31 429.80 L 84.60 426.40 L 80.89 423.00 L 66.44 423.00 C57.48,423.00 52.00,422.62 52.00,422.00 C52.00,421.45 50.42,421.00 48.50,421.00 C45.67,421.00 45.00,421.38 45.00,423.00 C45.00,424.80 47.00,425.61 50.22,425.13 C50.62,425.07 50.52,426.14 50.00,427.51 C49.15,429.75 49.30,430.00 51.52,430.00 C52.89,430.00 54.06,430.45 54.12,431.00 C54.19,431.55 54.36,432.45 54.50,433.00 C54.64,433.55 54.81,434.40 54.88,434.89 C54.94,435.38 56.12,436.07 57.50,436.41 C59.11,436.82 60.00,437.74 60.00,439.02 C60.00,440.11 60.34,441.06 60.75,441.13 C65.15,441.88 66.06,441.59 66.64,439.29 C67.32,436.58 66.47,435.37 63.51,434.84 C61.31,434.44 60.53,432.23 61.87,430.15 C62.54,429.11 63.22,429.05 64.81,429.90 C65.94,430.50 69.29,431.00 72.24,431.00 C79.90,431.00 80.65,431.93 81.39,442.25 C81.97,450.41 81.88,451.00 80.10,451.00 C78.88,451.00 77.82,449.92 77.15,448.00 C76.51,446.15 75.41,445.01 74.30,445.02 C70.93,445.04 70.25,446.15 70.85,450.64 C70.93,451.27 72.12,452.07 73.50,452.41 C75.13,452.82 76.00,453.74 76.00,455.04 C76.00,456.47 76.86,457.22 79.00,457.65 C81.32,458.11 82.00,458.79 82.00,460.62 C82.00,463.30 82.32,463.43 85.08,461.96 C86.15,461.38 86.97,461.27 86.90,461.71 C86.82,462.14 86.82,463.51 86.88,464.75 ZM 320.35 423.38 C320.69,421.80 321.16,418.25 321.38,415.50 C322.53,401.44 323.35,395.00 323.99,395.00 C324.38,395.00 324.49,392.75 324.23,390.00 C323.91,386.67 324.12,385.00 324.87,385.00 C325.49,385.00 326.00,385.45 326.00,386.00 C326.00,386.55 326.51,387.00 327.13,387.00 C328.66,387.00 353.01,400.97 352.96,401.82 C352.93,402.42 325.07,423.07 321.20,425.38 C319.98,426.10 319.83,425.74 320.35,423.38 ZM 329.05 407.88 C330.36,413.13 331.90,412.29 332.71,405.87 C333.40,400.50 334.61,398.00 336.54,398.00 C338.13,398.00 338.55,395.46 337.11,394.57 C335.65,393.66 327.10,397.28 326.73,398.95 C326.55,399.80 326.75,401.17 327.18,402.00 C327.60,402.83 328.45,405.47 329.05,407.88 ZM 334.59 409.15 C335.37,410.41 336.67,410.19 338.36,408.50 C339.18,407.67 340.34,407.00 340.93,407.00 C341.52,407.00 342.93,406.07 344.07,404.93 C345.71,403.29 345.89,402.57 344.94,401.43 C343.10,399.21 341.36,399.73 340.06,402.87 C339.40,404.44 337.79,406.31 336.47,407.02 C335.15,407.72 334.30,408.68 334.59,409.15 ZM 326.32 391.40 C327.19,393.66 330.00,393.40 330.00,391.06 C330.00,389.99 329.64,388.90 329.20,388.62 C327.78,387.74 325.69,389.75 326.32,391.40 ZM 0.53 60.71 C0.75,62.34 1.06,62.00 1.53,60.72 C4.85,51.67 13.16,43.93 21.96,41.47 C12.25,44.22 2.92,53.71 1.09,63.05 C0.87,64.18 0.68,63.39 0.53,60.71 ZM 198.85 14.70 C202.39,19.93 203.97,25.66 204.00,32.86 C203.97,26.20 202.08,19.92 198.85,14.70 ZM 100.29 3.26 C98.06,2.20 95.72,1.45 93.28,1.04 C92.61,0.93 92.93,0.82 94.12,0.73 L 97.64 2.08 C98.54,2.43 99.42,2.82 100.29,3.26 ZM 233.77 11.63 C229.55,16.92 226.95,23.82 226.33,31.89 C226.97,23.52 229.40,16.84 233.77,11.63 ZM 61.61 11.84 C57.39,17.18 54.81,24.09 54.26,32.05 C54.82,23.82 57.25,17.11 61.61,11.84 ZM 164.09 0.75 C165.03,0.85 165.26,0.96 164.73,1.09 C163.39,1.41 162.08,1.81 160.81,2.30 ZM 75.00 2.20 L 78.10 0.75 C79.03,0.85 79.26,0.97 78.73,1.09 C77.45,1.39 76.20,1.76 75.00,2.20 ZM 250.10 0.75 C251.04,0.85 251.26,0.96 250.73,1.09 C249.46,1.39 248.23,1.75 247.04,2.18 ZM 185.58 2.89 C183.76,2.08 181.84,1.47 179.85,1.08 C179.28,0.96 179.42,0.86 180.22,0.77 L 183.99 2.21 C184.53,2.42 185.06,2.64 185.58,2.89 ZM 266.60 0.91 L 269.83 2.15 C270.05,2.24 270.28,2.33 270.51,2.43 C269.02,1.84 267.43,1.39 265.67,1.04 C265.45,1.00 265.77,0.96 266.60,0.91 ZM 145.66 14.59 C143.80,17.34 142.48,20.31 141.59,23.78 C142.02,21.97 142.51,20.36 143.02,19.21 C143.71,17.65 144.60,16.09 145.66,14.59 ZM 286.18 16.86 C288.82,21.51 290.00,26.65 290.00,32.92 C290.00,26.78 288.76,21.52 286.18,16.86 ZM 117.84 31.75 C117.68,27.94 117.34,25.21 116.69,22.81 C117.40,25.22 117.68,27.76 117.85,31.75 L 118.21 40.00 Z" fill="rgb(249,156,111)"/>
<path d="M 357.00 380.31 C351.77,377.26 343.99,372.71 339.70,370.21 C335.42,367.71 331.69,365.30 331.42,364.86 C331.15,364.43 334.25,358.32 338.31,351.28 C342.37,344.25 353.36,325.23 362.74,309.00 C391.35,259.48 423.45,203.82 426.88,197.77 C428.66,194.62 430.56,191.77 431.10,191.44 C432.05,190.85 443.71,197.07 460.74,207.24 C468.43,211.83 468.90,212.31 467.83,214.33 C467.19,215.52 457.44,232.48 446.16,252.00 C426.90,285.34 415.59,304.93 382.69,362.00 C375.24,374.92 368.55,385.58 367.82,385.68 C367.09,385.78 362.23,383.36 357.00,380.31 ZM 86.88 464.75 C86.82,463.51 86.82,462.14 86.90,461.71 C86.97,461.27 86.15,461.38 85.08,461.96 C82.32,463.43 82.00,463.30 82.00,460.62 C82.00,458.79 81.32,458.11 79.00,457.65 C76.86,457.22 76.00,456.47 76.00,455.04 C76.00,453.74 75.13,452.82 73.50,452.41 C72.12,452.07 70.93,451.27 70.85,450.64 C70.25,446.15 70.93,445.04 74.30,445.02 C75.41,445.01 76.51,446.15 77.15,448.00 C77.82,449.92 78.88,451.00 80.10,451.00 C81.88,451.00 81.97,450.41 81.39,442.25 C80.65,431.93 79.90,431.00 72.24,431.00 C69.29,431.00 65.94,430.50 64.81,429.90 C63.22,429.05 62.54,429.11 61.87,430.15 C60.53,432.23 61.31,434.44 63.51,434.84 C66.47,435.37 67.32,436.58 66.64,439.29 C66.06,441.59 65.15,441.88 60.75,441.13 C60.34,441.06 60.00,440.11 60.00,439.02 C60.00,437.74 59.11,436.82 57.50,436.41 C56.12,436.07 54.94,435.38 54.88,434.89 C54.81,434.40 54.64,433.55 54.50,433.00 C54.36,432.45 54.19,431.55 54.12,431.00 C54.06,430.45 52.89,430.00 51.52,430.00 C49.30,430.00 49.15,429.75 50.00,427.51 C50.52,426.14 50.62,425.07 50.22,425.13 C47.00,425.61 45.00,424.80 45.00,423.00 C45.00,421.38 45.67,421.00 48.50,421.00 C50.42,421.00 52.00,421.45 52.00,422.00 C52.00,422.62 57.48,423.00 66.44,423.00 L 80.89 423.00 L 84.60 426.40 L 88.31 429.80 L 88.09 445.40 C87.90,458.97 88.08,461.00 89.44,461.00 C90.51,461.00 91.00,461.95 91.00,464.00 C91.00,466.33 90.56,467.00 89.00,467.00 C87.63,467.00 86.96,466.29 86.88,464.75 ZM 329.05 407.88 C328.45,405.47 327.60,402.83 327.18,402.00 C326.75,401.17 326.55,399.80 326.73,398.95 C327.10,397.28 335.65,393.66 337.11,394.57 C338.55,395.46 338.13,398.00 336.54,398.00 C334.61,398.00 333.40,400.50 332.71,405.87 C331.90,412.29 330.36,413.13 329.05,407.88 ZM 334.59 409.15 C334.30,408.68 335.15,407.72 336.47,407.02 C337.79,406.31 339.40,404.44 340.06,402.87 C341.36,399.73 343.10,399.21 344.94,401.43 C345.89,402.57 345.71,403.29 344.07,404.93 C342.93,406.07 341.52,407.00 340.93,407.00 C340.34,407.00 339.18,407.67 338.36,408.50 C336.67,410.19 335.37,410.41 334.59,409.15 ZM 326.32 391.40 C325.69,389.75 327.78,387.74 329.20,388.62 C329.64,388.90 330.00,389.99 330.00,391.06 C330.00,393.40 327.19,393.66 326.32,391.40 Z" fill="rgb(252,208,70)"/>
<path d="M 0.00 462.35 L 0.00 412.70 L 2.90 416.60 C6.34,421.24 93.39,508.00 96.97,510.37 C99.28,511.89 96.08,512.00 49.72,512.00 L 0.00 512.00 L 0.00 462.35 ZM 322.00 511.06 C330.85,508.36 337.46,502.56 341.43,494.00 C343.80,488.90 343.98,487.45 343.97,474.00 C343.96,461.76 343.69,459.17 342.23,457.37 C338.07,452.24 331.33,451.90 326.91,456.60 C324.68,458.97 324.48,460.06 324.20,471.33 C324.03,478.02 323.41,484.76 322.81,486.30 C320.49,492.26 325.49,492.00 214.05,492.00 L 112.00 492.00 L 112.00 458.51 C112.00,427.88 111.84,424.59 110.07,419.96 C107.28,412.60 101.94,406.61 95.24,403.32 L 89.50 400.50 L 54.75 400.19 L 20.00 399.88 L 20.00 268.94 L 20.00 138.00 L 172.00 138.00 L 324.00 138.00 L 324.00 176.35 C324.00,201.84 324.37,215.77 325.11,217.88 C327.33,224.27 336.13,226.03 341.08,221.08 L 344.00 218.15 L 343.99 140.83 L 343.98 63.50 L 341.43 58.00 C338.25,51.13 333.95,46.57 327.50,43.22 C322.85,40.80 321.36,40.59 306.25,40.19 L 290.00 39.77 L 290.00 32.92 C290.00,23.20 287.15,16.19 280.47,9.52 C277.04,6.08 273.26,3.47 269.83,2.15 L 264.50 0.10 L 388.25 0.05 L 512.00 0.00 L 511.90 80.25 C511.84,129.06 511.45,159.03 510.92,156.75 C508.16,145.06 497.16,132.22 486.09,127.78 C481.53,125.95 478.57,125.54 470.00,125.55 C459.83,125.55 459.25,125.68 451.72,129.41 C441.99,134.24 437.68,138.94 428.63,154.61 C424.85,161.15 409.18,188.32 393.80,215.00 C378.41,241.68 364.10,266.42 361.99,270.00 C354.46,282.77 310.22,359.68 308.51,362.97 C307.26,365.40 305.56,377.14 302.39,405.41 C299.98,426.91 298.00,446.21 298.00,448.30 C298.00,454.73 304.95,459.59 310.93,457.33 C315.05,455.78 377.90,409.00 380.45,405.59 C381.72,403.89 389.74,390.35 398.28,375.50 C406.81,360.65 416.92,343.10 420.74,336.50 C424.56,329.90 437.04,308.30 448.47,288.50 C459.90,268.70 477.85,237.65 488.35,219.50 C498.86,201.35 508.46,183.57 509.70,180.00 L 511.95 173.50 L 511.97 342.75 L 512.00 512.00 L 415.75 511.91 C362.81,511.87 320.62,511.48 322.00,511.06 ZM 277.08 359.08 C280.91,355.24 281.13,349.42 277.59,345.31 L 275.17 342.50 L 172.50 342.50 L 69.84 342.50 L 66.92 345.77 C62.87,350.30 63.02,354.22 67.40,358.60 L 70.80 362.00 L 172.48 362.00 L 274.15 362.00 L 277.08 359.08 ZM 277.08 303.08 C280.91,299.24 281.13,293.42 277.59,289.31 L 275.17 286.50 L 172.50 286.50 L 69.84 286.50 L 66.92 289.77 C62.87,294.30 63.02,298.22 67.40,302.60 L 70.80 306.00 L 172.48 306.00 L 274.15 306.00 L 277.08 303.08 ZM 341.08 263.08 C348.64,255.51 340.65,243.19 330.84,247.30 C326.21,249.23 324.55,251.59 324.55,256.23 C324.55,259.45 325.16,260.75 327.79,263.10 C332.23,267.07 337.09,267.06 341.08,263.08 ZM 277.08 247.08 C280.91,243.24 281.13,237.42 277.59,233.31 L 275.17 230.50 L 172.50 230.50 L 69.84 230.50 L 66.92 233.77 C62.87,238.30 63.02,242.22 67.40,246.60 L 70.80 250.00 L 172.48 250.00 L 274.15 250.00 L 277.08 247.08 ZM 78.85 192.57 C80.37,191.79 82.15,189.97 82.81,188.53 C87.78,177.61 74.24,168.98 66.53,178.15 C62.92,182.43 63.20,186.40 67.40,190.60 C71.14,194.34 74.36,194.90 78.85,192.57 ZM 277.08 191.08 C280.91,187.24 281.13,181.42 277.59,177.31 L 275.17 174.50 L 196.84 174.20 C142.52,173.99 117.35,174.23 114.76,174.99 C106.77,177.31 105.73,188.51 113.11,192.60 C115.04,193.67 130.90,193.94 194.83,193.96 L 274.15 194.00 L 277.08 191.08 ZM 0.07 32.25 L 0.00 0.00 L 39.75 0.05 L 79.50 0.09 L 73.50 2.91 C61.54,8.51 55.22,18.10 54.26,32.05 L 53.71 40.00 L 41.49 40.00 C34.77,40.00 26.85,40.46 23.89,41.02 C14.39,42.81 5.09,51.01 1.53,60.72 C0.29,64.08 0.13,60.94 0.07,32.25 ZM 74.26 34.04 C74.94,26.54 77.68,22.43 82.94,21.02 C91.85,18.62 98.00,24.28 98.00,34.90 L 98.00 40.00 L 85.86 40.00 L 73.72 40.00 L 74.26 34.04 ZM 117.85 31.75 C117.57,25.03 116.95,22.42 114.53,17.64 C110.97,10.61 104.63,4.77 97.64,2.08 L 92.50 0.10 L 129.00 0.10 L 165.50 0.09 L 159.50 2.92 C152.39,6.27 145.89,12.69 143.02,19.21 C141.80,21.97 140.69,27.25 140.32,31.96 L 139.70 40.00 L 128.95 40.00 L 118.21 40.00 L 117.85 31.75 ZM 160.01 36.25 C160.02,26.60 164.44,20.84 171.97,20.64 C179.73,20.44 184.00,25.50 184.00,34.90 L 184.00 40.00 L 172.00 40.00 L 160.00 40.00 L 160.01 36.25 ZM 204.00 33.04 C204.00,23.35 201.19,16.31 194.65,9.61 C191.19,6.06 187.68,3.63 183.99,2.21 L 178.50 0.10 L 215.00 0.10 L 251.50 0.09 L 245.50 2.91 C233.56,8.50 227.42,17.79 226.33,31.89 L 225.70 40.00 L 214.85 40.00 L 204.00 40.00 L 204.00 33.04 ZM 246.25 34.13 C247.08,25.08 251.13,20.60 258.50,20.60 C265.87,20.60 270.00,25.74 270.00,34.90 L 270.00 40.00 L 257.86 40.00 L 245.72 40.00 L 246.25 34.13 Z" fill="rgb(254,254,254)"/>
</g>
</svg>